<svg xmlns="http://www.w3.org/2000/svg" version="1.1" xmlns:xlink="http://www.w3.org/1999/xlink" xmlns:svgjs="http://svgjs.dev/svgjs" width="1500" height="1500" viewBox="0 0 1500 1500"><rect width="1500" height="1500" fill="#ffffff"></rect><g transform="matrix(0.6666666666666666,0,0,0.6666666666666666,249.39393939393938,450.4904275600062)"><svg viewBox="0 0 396 237" data-background-color="#ffffff" preserveAspectRatio="xMidYMid meet" height="897" width="1500" xmlns="http://www.w3.org/2000/svg" xmlns:xlink="http://www.w3.org/1999/xlink"><g id="tight-bounds" transform="matrix(1,0,0,1,0.2400000000000091,0.20195429478016536)"><svg viewBox="0 0 395.52 236.59609141043967" height="236.59609141043967" width="395.52"><g><svg viewBox="0 0 395.52 236.59609141043967" height="236.59609141043967" width="395.52"><g transform="matrix(1,0,0,1,0,146.2258762560898)"><svg viewBox="0 0 395.52 90.37021515434986" height="90.37021515434986" width="395.52"><g id="textblocktransform"><svg viewBox="0 0 395.52 90.37021515434986" height="90.37021515434986" width="395.52" id="textblock"><g><svg viewBox="0 0 395.52 90.37021515434986" height="90.37021515434986" width="395.52"><g transform="matrix(1,0,0,1,0,0)"><svg width="395.52" viewBox="3.7 -29.65 217.63 48.85" height="90.37021515434986" data-palette-color="#6d28d9"><g class="wordmark-text-0" data-fill-palette-color="primary" id="text-0"><path d="M16.85 0.15L16.85 0.15Q15.3 0.45 13.75 0.45L13.75 0.45Q8.7 0.45 5.75-2.8L5.75-2.8Q3.7-5.1 3.7-8.65L3.7-8.65Q3.7-16.3 10.6-22.65L10.6-22.65Q18.3-29.5 29.35-29.5L29.35-29.5Q32.5-29.5 34.8-28.3L34.8-28.3Q36.65-27.3 36.65-25.3L36.65-25.3Q36.65-24.45 36.15-24.35L36.15-24.35Q35.5-24.2 35.45-25.1L35.45-25.1Q35.25-28.4 30.35-28.4L30.35-28.4Q28.15-28.4 24.93-27.33 21.7-26.25 18.25-24.25 14.8-22.25 11.8-19.83 8.8-17.4 6.88-14.35 4.95-11.3 4.95-8.25 4.95-5.2 7.08-3.58 9.2-1.95 12.3-1.95L12.3-1.95Q15.7-1.95 20.2-3.15L20.2-3.15Q22.7-3.9 24.95-5.28 27.2-6.65 28.4-7.7L28.4-7.7Q30.65-9.6 32.95-11.9L32.95-11.9Q34.15-14.95 36.9-15.45L36.9-15.45Q38.05-15.65 39.4-15.45L39.4-15.45 40-15.35Q40.45-15.25 40.45-15.1L40.45-15.1Q40.45-14.6 39.8-14.65L39.8-14.65Q39.75-14.65 39.7-14.65L39.7-14.65Q37-14.65 35.25-9.6L35.25-9.6Q33.9-5.55 32.7-2.35L32.7-2.35Q35.35-2.95 36.2-2.95 37.05-2.95 37.4-2.75 37.75-2.55 37.52-2.3 37.3-2.05 37.08-2.15 36.85-2.25 36.27-2.25 35.7-2.25 34.02-1.83 32.35-1.4 32.05-0.6L32.05-0.6Q27.05 12.05 19.95 17L19.95 17Q16.75 19.2 14.25 19.2L14.25 19.2Q13.3 19.2 12.45 18.9L12.45 18.9Q10.15 18.05 10.15 15.5L10.15 15.5Q10.15 12.45 13.3 8.85L13.3 8.85Q19.4 1.8 29.95-1.6L29.95-1.6Q31.25-5.55 32.35-9.45L32.35-9.45Q23.4-1 16.85 0.15ZM12.85 14.8L12.85 14.8Q12.85 15.35 13 15.9L13 15.9Q13.5 17.85 15.5 17.85L15.5 17.85Q18.45 17.85 21.7 13.9L21.7 13.9Q26.55 7.85 29.6-0.65L29.6-0.65Q20.85 2.2 15.75 8.6L15.75 8.6Q12.85 12.15 12.85 14.8ZM53.5-14.55L53.5-14.55Q56.2-14.55 56.2-11.95L56.2-11.95Q56.2-10.6 55.45-9.75L55.45-9.75Q54.2-7.9 51.4-6.53 48.6-5.15 46.65-5L46.65-5Q45.95-4.95 45.9-5.4L45.9-5.4Q45.85-5.6 46.02-5.65 46.2-5.7 46.3-5.7L46.3-5.7Q47.45-5.8 49.25-6.8L49.25-6.8Q52.6-8.6 54.15-10.5L54.15-10.5Q54.8-11.4 54.8-12.23 54.8-13.05 54-13.05L54-13.05Q53.35-13.05 52.25-12.5L52.25-12.5Q49.9-11.4 47.3-8.68 44.7-5.95 43.9-3.35L43.9-3.35Q43.65-2.55 43.65-1.78 43.65-1 44.3-0.3 44.95 0.4 46.3 0.4L46.3 0.4Q47.8 0.4 49.75-0.4L49.75-0.4Q55.4-2.7 58.45-7.35L58.45-7.35Q58.75-7.75 59-7.5L59-7.5Q59.2-7.4 59.2-7.25 59.2-7.1 59.05-6.9L59.05-6.9Q57.55-4.4 55.25-2.45L55.25-2.45Q50.8 1.35 46.6 1.35L46.6 1.35Q43 1.35 41.55-0.8L41.55-0.8Q41-1.65 41-2.85 41-4.05 41.65-5.7L41.65-5.7Q42.9-8.55 47-11.55 51.1-14.55 53.5-14.55ZM69.45-14.55L69.45-14.55Q72.15-14.55 72.15-11.95L72.15-11.95Q72.15-10.6 71.4-9.75L71.4-9.75Q70.15-7.9 67.35-6.53 64.55-5.15 62.6-5L62.6-5Q61.9-4.95 61.85-5.4L61.85-5.4Q61.8-5.6 61.97-5.65 62.15-5.7 62.25-5.7L62.25-5.7Q63.4-5.8 65.2-6.8L65.2-6.8Q68.55-8.6 70.1-10.5L70.1-10.5Q70.75-11.4 70.75-12.23 70.75-13.05 69.95-13.05L69.95-13.05Q69.3-13.05 68.2-12.5L68.2-12.5Q65.85-11.4 63.25-8.68 60.65-5.95 59.85-3.35L59.85-3.35Q59.6-2.55 59.6-1.78 59.6-1 60.25-0.3 60.9 0.4 62.25 0.4L62.25 0.4Q63.75 0.4 65.7-0.4L65.7-0.4Q71.35-2.7 74.4-7.35L74.4-7.35Q74.7-7.75 74.95-7.5L74.95-7.5Q75.15-7.4 75.15-7.25 75.15-7.1 75-6.9L75-6.9Q73.5-4.4 71.2-2.45L71.2-2.45Q66.75 1.35 62.55 1.35L62.55 1.35Q58.95 1.35 57.5-0.8L57.5-0.8Q56.95-1.65 56.95-2.85 56.95-4.05 57.6-5.7L57.6-5.7Q58.85-8.55 62.95-11.55 67.05-14.55 69.45-14.55ZM76.14 0.4L76.14 0.4Q74.34 1.3 73.84 1.3 73.34 1.3 73.34 1.15 73.34 1 73.42 0.83 73.49 0.65 74.12-1.05 74.74-2.75 75.69-5.35 76.64-7.95 77.34-9.7L77.34-9.7Q76.19-8.45 74.64-6.25L74.64-6.25Q74.39-5.9 73.97-6.05 73.54-6.2 74.24-7.1L74.24-7.1Q75.89-9.1 78.39-12.85L78.39-12.85Q77.64-13.25 77.64-13.63 77.64-14 77.74-14.2L77.74-14.2Q77.99-14.8 78.64-14.45L78.64-14.45Q78.94-14.35 79.04-14.35L79.04-14.35Q81.24-20.15 84.54-24.7L84.54-24.7Q86.34-27.25 88.29-28.43 90.24-29.6 91.94-29.6L91.94-29.6Q93.14-29.6 94.24-29.03 95.34-28.45 95.34-27.15L95.34-27.15Q95.34-24.65 91.04-19.9L91.04-19.9Q88.74-17.45 85.89-15.4 83.04-13.35 80.84-12.4L80.84-12.4Q78.89-8.1 77.39-3.4L77.39-3.4 80.64-7.65Q80.59-8.1 80.59-8.6L80.59-8.6Q80.59-10.1 81.24-10.45L81.24-10.45Q81.59-10.6 81.69-9.85L81.69-9.85 81.89-9.15Q85.74-13.65 87.44-14.45L87.44-14.45Q88.24-14.85 88.89-14.85 89.54-14.85 90.04-14.5 90.54-14.15 90.54-13.75L90.54-13.75Q90.54-13.05 89.39-12.5L89.39-12.5Q83.89-9.85 82.14-8L82.14-8Q83.34-3.8 84.49-1.4 85.64 1 88.12 4 90.59 7 92.64 7L92.64 7Q94.34 7 94.04 5.5L94.04 5.5Q93.84 4.15 93.22 3.18 92.59 2.2 93.09 2.2L93.09 2.2Q93.54 2.25 94.04 2.65L94.04 2.65Q94.34 3 94.74 3.88 95.14 4.75 95.14 5.35L95.14 5.35Q95.09 6.75 93.79 7.55 92.49 8.35 91.29 8.35L91.29 8.35Q88.94 8.35 86.69 6.03 84.44 3.7 82.94 0.4 81.44-2.9 80.84-6.35L80.84-6.35Q79.94-5.1 78.84-3.35L78.84-3.35Q76.59 0.1 76.14 0.4ZM92.49-24.3Q93.84-26.55 93.84-27.45 93.84-28.35 93.09-28.35 92.34-28.35 91.19-27.45L91.19-27.45Q87.99-25 85.79-21.88 83.59-18.75 81.44-14.1L81.44-14.1Q86.09-16.25 89.89-20.6L89.89-20.6Q91.14-22.05 92.49-24.3ZM91.54 0.5L91.54 0.5Q90.89 1.25 91.27 1.7 91.64 2.15 92.12 2.15 92.59 2.15 93.09 2L93.09 2Q95.24 1.35 97.27-0.58 99.29-2.5 99.29-4.5L99.29-4.5Q99.29-5.6 96.84-6.9L96.84-6.9Q95.69-7.5 95.54-7.6L95.54-7.6Q94.19-8.5 93.84-9.4L93.84-9.4Q93.14-8.2 91.59-5.95L91.59-5.95Q91.24-5.55 90.94-5.78 90.64-6 90.89-6.4L90.89-6.4Q92.94-9.2 93.59-11.1L93.59-11.1Q93.94-13.85 97.59-16.05 101.24-18.25 104.24-18.25L104.24-18.25Q106.14-18.25 106.92-17.57 107.69-16.9 107.69-16.25 107.69-15.6 107.32-14.75 106.94-13.9 105.79-13.15L105.79-13.15Q105.49-12.95 105.29-13.25L105.29-13.25Q105.19-13.55 105.72-14.08 106.24-14.6 106.39-15.5 106.54-16.4 105.59-16.6L105.59-16.6Q105.44-16.6 105.29-16.6L105.29-16.6Q103.34-16.6 100.42-15.15 97.49-13.7 95.84-11.4L95.84-11.4Q95.19-10.55 95.19-9.68 95.19-8.8 96.39-8.1L96.39-8.1Q96.89-7.8 98.09-7.15 99.29-6.5 99.79-6.2 100.29-5.9 100.99-5.25 101.69-4.6 101.74-4.05L101.74-4.05Q101.99-2.55 100.34-0.75L100.34-0.75Q97.99 1.85 93.34 2.9L93.34 2.9Q92.29 3.15 91.22 3.15 90.14 3.15 89.74 2.35L89.74 2.35Q89.59 2.15 89.59 1.73 89.59 1.3 90.39 0.35L90.39 0.35Q91.14-0.4 92.79-1.1L92.79-1.1Q92.94-1.15 93.04-1.05 93.14-0.95 93.09-0.8 93.04-0.65 92.57-0.45 92.09-0.25 91.54 0.5Z" fill="#000000" data-fill-palette-color="primary"></path><path d="M159.39-21.65L159.39-21.65Q158.19-21.65 156.19-23.4L156.19-23.4Q156.24-22.65 156.24-21.85L156.24-21.85Q156.24-17.85 154.64-12.1 153.04-6.35 149.81-1.5 146.59 3.35 143.24 3.35L143.24 3.35Q140.44 3.35 138.41 1.15 136.39-1.05 135.34-4.6L135.34-4.6Q133.44-11.35 133.44-19.15L133.44-19.15Q129.99-10.1 126.84-4.25L126.84-4.25Q121.54 5.15 116.64 6.65L116.64 6.65Q115.39 7.05 114.39 7.05 113.39 7.05 112.64 6.85L112.64 6.85Q110.59 6.15 110.09 4.05L110.09 4.05Q110.04 3.8 110.04 3.6 110.04 3.4 110.09 3.1 110.14 2.8 110.39 2.93 110.64 3.05 110.89 3.85L110.89 3.85Q111.24 5.2 112.64 5.55L112.64 5.55Q113.49 5.8 114.29 5.8 115.09 5.8 115.84 5.55L115.84 5.55Q120.64 4.05 125.34-4.5L125.34-4.5Q128.59-10.75 131.94-22.1L131.94-22.1Q129.19-19.6 125.44-19.35L125.44-19.35Q124.94-19.3 124.91-19.7 124.89-20.1 125.49-20.2L125.49-20.2Q127.64-20.4 129.94-22.45 132.24-24.5 133.39-27.15L133.39-27.15Q133.59-27.8 135.14-27.78 136.69-27.75 136.64-27.15L136.64-27.15Q136.44-26.6 136.19-24.5 135.94-22.4 135.94-20.35L135.94-20.35Q135.94-11.55 138.69-3.8L138.69-3.8Q140.64 1.65 143.64 1.65 146.64 1.65 149.24-3.6 151.84-8.85 152.81-14 153.79-19.15 153.79-21.23 153.79-23.3 153.59-24.33 153.39-25.35 152.24-28.7L152.24-28.7Q152.19-28.85 152.59-29.23 152.99-29.6 153.19-29.65L153.19-29.65Q154.14-29.65 154.96-28.5 155.79-27.35 156.64-25.8L156.64-25.8Q158.09-23 159.34-23L159.34-23 159.94-23.15Q160.39-23.15 160.49-22.65L160.49-22.65Q160.49-22.25 160.14-21.98 159.79-21.7 159.39-21.65ZM170.24-5.5L170.24-5.5Q171.14-7.35 171.14-8.35 171.14-9.35 170.91-9.93 170.69-10.5 171.11-10.9 171.54-11.3 172.19-11.2L172.19-11.2Q173.19-10.95 173.19-8.95 173.19-6.95 170.84-3.7L170.84-3.7Q170.89-2.35 172.24-2.35 173.59-2.35 176.34-5.25L176.34-5.25Q177.64-6.75 177.96-7.2 178.29-7.65 178.54-7.53 178.79-7.4 178.79-7.3L178.79-7.3Q178.79-6.8 176.99-4.7L176.99-4.7Q174.14-1.2 171.94-1.2L171.94-1.2Q170.49-1.2 169.89-2.45L169.89-2.45Q168.89-1.4 167.94-0.5L167.94-0.5Q165.99 1.15 163.59 1.15L163.59 1.15Q162.24 1.15 161.34 0.5L161.34 0.5Q159.59-0.55 159.59-3.25L159.59-3.25Q159.59-6.2 161.59-9.25L161.59-9.25Q162.74-11.05 164.29-12.4L164.29-12.4Q166.74-14.55 168.94-14.55L168.94-14.55Q169.49-14.55 169.99-14.4L169.99-14.4Q171.49-13.9 171.49-12.5L171.49-12.5Q171.49-11.35 170.89-11.35L170.89-11.35Q170.64-11.45 170.64-12.1L170.64-12.1Q170.64-13 169.64-13L169.64-13Q167.89-13 165.14-9.8 162.39-6.6 161.84-3.35L161.84-3.35Q161.74-2.8 161.74-2.13 161.74-1.45 162.19-0.58 162.64 0.3 163.86 0.3 165.09 0.3 166.54-0.8 167.99-1.9 169.14-3.6L169.14-3.6 168.99-3.9Q168.79-4.7 169.19-5.2 169.59-5.7 170.24-5.5ZM184.78-13.95L185.43-14Q189.28-14.35 190.11-14.35 190.93-14.35 190.93-14.1L190.93-14.1Q190.93-13.8 189.76-13.48 188.58-13.15 184.03-12.65L184.03-12.65Q183.78-12.2 183.43-11.6L183.43-11.6Q182.68-10.4 182.63-10.15L182.63-10.15Q179.78-4.45 179.63-2.9L179.63-2.9Q179.58-2.45 179.58-1.75 179.58-1.05 179.98-0.6L179.98-0.6Q180.68 0.2 181.98-0.5 183.28-1.2 185.61-3.3 187.93-5.4 189.38-7.4L189.38-7.4Q189.58-7.65 189.88-7.5L189.88-7.5Q190.63-7.15 187.28-3.55L187.28-3.55Q184.08-0.1 181.93 0.7L181.93 0.7Q180.68 1.15 179.83 1.15L179.83 1.15Q177.83 1.15 177.18-0.75L177.18-0.75Q177.08-1.1 177.08-1.6L177.08-1.6Q177.08-3.35 178.68-6.9L178.68-6.9Q178.43-6.35 176.73-4.4L176.73-4.4Q176.28-3.9 176.03-4.4L176.03-4.4Q175.98-4.5 175.98-4.67 175.98-4.85 176.18-5.1L176.18-5.1Q178.63-8.15 180.03-10.25L180.03-10.25Q180.03-10.3 181.13-12.35L181.13-12.35Q180.63-12.25 180.11-12.25 179.58-12.25 179.33-12.58 179.08-12.9 179.28-13.35L179.28-13.35Q179.63-14.15 181.93-14.25L181.93-14.25Q181.98-14.35 182.13-14.35L182.13-14.35 184.63-19Q184.83-19.4 185.08-19.83 185.33-20.25 185.46-20.48 185.58-20.7 185.73-20.95 185.88-21.2 185.98-21.3 186.08-21.4 186.18-21.5L186.18-21.5Q186.38-21.8 187.36-21.8 188.33-21.8 188.68-21.25L188.68-21.25Q188.83-21.05 188.83-20.58 188.83-20.1 188.48-19.53 188.13-18.95 187.73-18.7 187.33-18.45 187.18-18.15L187.18-18.15 184.78-13.95ZM200.28-14.55L200.28-14.55Q202.98-14.55 202.98-11.95L202.98-11.95Q202.98-10.6 202.23-9.75L202.23-9.75Q200.98-7.9 198.18-6.53 195.38-5.15 193.43-5L193.43-5Q192.73-4.95 192.68-5.4L192.68-5.4Q192.63-5.6 192.81-5.65 192.98-5.7 193.08-5.7L193.08-5.7Q194.23-5.8 196.03-6.8L196.03-6.8Q199.38-8.6 200.93-10.5L200.93-10.5Q201.58-11.4 201.58-12.23 201.58-13.05 200.78-13.05L200.78-13.05Q200.13-13.05 199.03-12.5L199.03-12.5Q196.68-11.4 194.08-8.68 191.48-5.95 190.68-3.35L190.68-3.35Q190.43-2.55 190.43-1.78 190.43-1 191.08-0.3 191.73 0.4 193.08 0.4L193.08 0.4Q194.58 0.4 196.53-0.4L196.53-0.4Q202.18-2.7 205.23-7.35L205.23-7.35Q205.53-7.75 205.78-7.5L205.78-7.5Q205.98-7.4 205.98-7.25 205.98-7.1 205.83-6.9L205.83-6.9Q204.33-4.4 202.03-2.45L202.03-2.45Q197.58 1.35 193.38 1.35L193.38 1.35Q189.78 1.35 188.33-0.8L188.33-0.8Q187.78-1.65 187.78-2.85 187.78-4.05 188.43-5.7L188.43-5.7Q189.68-8.55 193.78-11.55 197.88-14.55 200.28-14.55ZM205.18 0.5L205.18 0.5Q204.53 1.25 204.9 1.7 205.28 2.15 205.75 2.15 206.23 2.15 206.73 2L206.73 2Q208.88 1.35 210.9-0.58 212.93-2.5 212.93-4.5L212.93-4.5Q212.93-5.6 210.48-6.9L210.48-6.9Q209.33-7.5 209.18-7.6L209.18-7.6Q207.83-8.5 207.48-9.4L207.48-9.4Q206.78-8.2 205.23-5.95L205.23-5.95Q204.88-5.55 204.58-5.78 204.28-6 204.53-6.4L204.53-6.4Q206.58-9.2 207.23-11.1L207.23-11.1Q207.58-13.85 211.23-16.05 214.88-18.25 217.88-18.25L217.88-18.25Q219.78-18.25 220.55-17.57 221.33-16.9 221.33-16.25 221.33-15.6 220.95-14.75 220.58-13.9 219.43-13.15L219.43-13.15Q219.13-12.95 218.93-13.25L218.93-13.25Q218.83-13.55 219.35-14.08 219.88-14.6 220.03-15.5 220.18-16.4 219.23-16.6L219.23-16.6Q219.08-16.6 218.93-16.6L218.93-16.6Q216.98-16.6 214.05-15.15 211.13-13.7 209.48-11.4L209.48-11.4Q208.83-10.55 208.83-9.68 208.83-8.8 210.03-8.1L210.03-8.1Q210.53-7.8 211.73-7.15 212.93-6.5 213.43-6.2 213.93-5.9 214.63-5.25 215.33-4.6 215.38-4.05L215.38-4.05Q215.63-2.55 213.98-0.75L213.98-0.75Q211.63 1.85 206.98 2.9L206.98 2.9Q205.93 3.15 204.85 3.15 203.78 3.15 203.38 2.35L203.38 2.35Q203.23 2.15 203.23 1.73 203.23 1.3 204.03 0.35L204.03 0.35Q204.78-0.4 206.43-1.1L206.43-1.1Q206.58-1.15 206.68-1.05 206.78-0.95 206.73-0.8 206.68-0.65 206.2-0.45 205.73-0.25 205.18 0.5Z" fill="#000000" data-fill-palette-color="secondary"></path></g></svg></g></svg></g></svg></g></svg></g><g transform="matrix(1,0,0,1,131.1373947164048,0)"><svg viewBox="0 0 133.2452105671904 124.89163734331152" height="124.89163734331152" width="133.2452105671904"><g><svg xmlns="http://www.w3.org/2000/svg" xmlns:xlink="http://www.w3.org/1999/xlink" version="1.1" x="8" y="0" viewBox="4 3 92 98" enable-background="new 0 0 100 100" xml:space="preserve" width="117.24521056719041" height="124.89163734331152" class="icon-icon-0" data-fill-palette-color="accent" id="icon-0"><g fill="#6d28d9" data-fill-palette-color="accent"><rect x="13" y="26" width="74" height="11" fill="#000000" data-fill-palette-color="accent"></rect><rect x="13" y="40" width="60" height="11" fill="#000000" data-fill-palette-color="accent"></rect><rect x="13" y="54" width="74" height="11" fill="#000000" data-fill-palette-color="accent"></rect><rect x="13" y="68" width="50" height="11" fill="#000000" data-fill-palette-color="accent"></rect><path d="M90.5 3h-81C6.467 3 4 5.467 4 8.5V101h92V8.5C96 5.467 93.532 3 90.5 3zM95 100H5V8.5C5 6.019 7.019 4 9.5 4h81C92.981 4 95 6.019 95 8.5V100z" fill="#000000" data-fill-palette-color="accent"></path></g></svg></g></svg></g><g><rect width="131.1373947164048" height="8.14967926468131" y="115.7419580786302" x="264.38260528359524" fill="#000000" data-fill-palette-color="accent"></rect><rect width="131.1373947164048" height="8.14967926468131" y="115.7419580786302" x="0" fill="#000000" data-fill-palette-color="accent"></rect><rect width="131.1373947164048" height="8.14967926468131" y="99.44259954926758" x="264.38260528359524" fill="#000000" data-fill-palette-color="accent"></rect><rect width="131.1373947164048" height="8.14967926468131" y="99.44259954926758" x="0" fill="#000000" data-fill-palette-color="accent"></rect></g></svg></g><defs></defs></svg><rect width="395.52" height="236.59609141043967" fill="none" stroke="none" visibility="hidden"></rect></g></svg></g></svg>