<svg xmlns="http://www.w3.org/2000/svg" xmlns:xlink="http://www.w3.org/1999/xlink" version="1.1"
    width="256" height="256" viewBox="0 0 256 256" xml:space="preserve">

    <defs>
    </defs>
    <g style="stroke: none; stroke-width: 0; stroke-dasharray: none; stroke-linecap: butt; stroke-linejoin: miter; stroke-miterlimit: 10; fill: none; fill-rule: nonzero; opacity: 1;" transform="translate(1.4065934065934016 1.4065934065934016) scale(2.81 2.81)" >
        <path d="M 72.128 0 H 52.785 H 36.577 H 17.235 c -2.725 0 -4.933 2.209 -4.933 4.933 v 19.342 v 42.11 v 12.186 c 0 2.725 2.209 4.933 4.933 4.933 h 54.892 c 2.725 0 4.933 -2.209 4.933 -4.933 V 66.386 v -42.11 V 4.933 C 77.061 2.209 74.852 0 72.128 0 z" style="stroke: none; stroke-width: 1; stroke-dasharray: none; stroke-linecap: butt; stroke-linejoin: miter; stroke-miterlimit: 10; fill: rgb(150,150,150); fill-rule: nonzero; opacity: 1;" transform=" matrix(1 0 0 1 0 0) " stroke-linecap="round" />
        <path d="M 83.556 30.77 v 54.296 c 0 2.725 -2.209 4.933 -4.933 4.933 H 23.73 c -2.725 0 -4.933 -2.209 -4.933 -4.933 V 72.881 V 11.428 c 0 -2.725 2.209 -4.933 4.933 -4.933 h 35.55 C 66.952 6.62 83.556 21.351 83.556 30.77 z" style="stroke: none; stroke-width: 1; stroke-dasharray: none; stroke-linecap: butt; stroke-linejoin: miter; stroke-miterlimit: 10; fill: rgb(226,226,226); fill-rule: nonzero; opacity: 1;" transform=" matrix(1 0 0 1 0 0) " stroke-linecap="round" />
        <path d="M 18.866 26.776 h 37.361 c 2.986 0 5.407 2.421 5.407 5.407 V 49.2 c 0 2.986 -2.421 5.407 -5.407 5.407 H 11.851 c -2.986 0 -5.407 -2.421 -5.407 -5.407 V 21.37" style="stroke: none; stroke-width: 1; stroke-dasharray: none; stroke-linecap: butt; stroke-linejoin: miter; stroke-miterlimit: 10; fill: rgb(241,86,66); fill-rule: nonzero; opacity: 1;" transform=" matrix(1 0 0 1 0 0) " stroke-linecap="round" />
        <path d="M 6.444 21.37 c 0 2.986 2.421 5.407 5.407 5.407 h 7.015 V 16.285 h -7.015 c -2.986 0 -5.407 2.421 -5.407 5.407" style="stroke: none; stroke-width: 1; stroke-dasharray: none; stroke-linecap: butt; stroke-linejoin: miter; stroke-miterlimit: 10; fill: rgb(190,64,48); fill-rule: nonzero; opacity: 1;" transform=" matrix(1 0 0 1 0 0) " stroke-linecap="round" />
        <path d="M 59.28 6.495 h 6.181 c 2.622 0 5.137 1.042 6.991 2.896 l 8.208 8.208 c 1.854 1.854 2.896 4.369 2.896 6.991 v 6.181 c 0 -3.172 -2.572 -5.744 -5.744 -5.744 h -7.298 c -3.032 0 -5.49 -2.458 -5.49 -5.49 c 0 0 0 -7.298 0 -7.298 v 0 C 65.024 9.066 62.452 6.495 59.28 6.495 C 59.28 6.495 59.28 6.495 59.28 6.495 z" style="stroke: none; stroke-width: 1; stroke-dasharray: none; stroke-linecap: butt; stroke-linejoin: miter; stroke-miterlimit: 10; fill: rgb(183,183,183); fill-rule: nonzero; opacity: 1;" transform=" matrix(1 0 0 1 0 0) " stroke-linecap="round" />
        <path d="M 22.461 32.177 h -5.093 c -0.769 0 -1.392 0.623 -1.392 1.392 v 8.443 v 5.782 c 0 0.769 0.623 1.392 1.392 1.392 c 0.769 0 1.392 -0.623 1.392 -1.392 v -4.39 h 3.701 c 2.108 0 3.824 -1.715 3.824 -3.824 v -3.58 C 26.285 33.893 24.569 32.177 22.461 32.177 z M 23.501 39.581 c 0 0.574 -0.467 1.04 -1.041 1.04 h -3.701 v -5.66 h 3.701 c 0.574 0 1.041 0.467 1.041 1.04 V 39.581 z" style="stroke: none; stroke-width: 1; stroke-dasharray: none; stroke-linecap: butt; stroke-linejoin: miter; stroke-miterlimit: 10; fill: rgb(255,255,255); fill-rule: nonzero; opacity: 1;" transform=" matrix(1 0 0 1 0 0) " stroke-linecap="round" />
        <path d="M 35.308 32.177 h -4.843 c -0.769 0 -1.392 0.623 -1.392 1.392 v 14.225 c 0 0.769 0.623 1.392 1.392 1.392 h 4.843 c 2.247 0 4.074 -1.828 4.074 -4.074 v -8.861 C 39.382 34.005 37.555 32.177 35.308 32.177 z M 36.599 45.112 c 0 0.711 -0.579 1.29 -1.291 1.29 h -3.451 V 34.961 h 3.451 c 0.712 0 1.291 0.579 1.291 1.29 V 45.112 z" style="stroke: none; stroke-width: 1; stroke-dasharray: none; stroke-linecap: butt; stroke-linejoin: miter; stroke-miterlimit: 10; fill: rgb(255,255,255); fill-rule: nonzero; opacity: 1;" transform=" matrix(1 0 0 1 0 0) " stroke-linecap="round" />
        <path d="M 51.347 32.177 h -7.525 c -0.769 0 -1.392 0.623 -1.392 1.392 v 14.225 c 0 0.769 0.623 1.392 1.392 1.392 c 0.769 0 1.392 -0.623 1.392 -1.392 v -5.721 h 3.536 c 0.768 0 1.392 -0.623 1.392 -1.392 s -0.623 -1.392 -1.392 -1.392 h -3.536 v -4.329 h 6.133 c 0.768 0 1.392 -0.623 1.392 -1.392 C 52.739 32.8 52.116 32.177 51.347 32.177 z" style="stroke: none; stroke-width: 1; stroke-dasharray: none; stroke-linecap: butt; stroke-linejoin: miter; stroke-miterlimit: 10; fill: rgb(255,255,255); fill-rule: nonzero; opacity: 1;" transform=" matrix(1 0 0 1 0 0) " stroke-linecap="round" />
        <path d="M 45.131 73.502 c -0.545 -0.544 -1.425 -0.544 -1.968 0 l -4.869 4.87 V 63.858 c 0 -0.768 -0.623 -1.392 -1.392 -1.392 c -0.769 0 -1.392 0.623 -1.392 1.392 v 14.513 l -4.869 -4.87 c -0.544 -0.544 -1.424 -0.544 -1.968 0 c -0.544 0.544 -0.544 1.424 0 1.968 l 5.866 5.867 c 0.58 0.58 1.322 0.886 2.081 0.95 c 0.091 0.019 0.185 0.029 0.282 0.029 c 0.097 0 0.191 -0.01 0.282 -0.029 c 0.759 -0.064 1.501 -0.37 2.081 -0.95 l 5.867 -5.867 C 45.674 74.926 45.674 74.046 45.131 73.502 z" style="stroke: none; stroke-width: 1; stroke-dasharray: none; stroke-linecap: butt; stroke-linejoin: miter; stroke-miterlimit: 10; fill: rgb(183,183,183); fill-rule: nonzero; opacity: 1;" transform=" matrix(1 0 0 1 0 0) " stroke-linecap="round" />
    </g>
    </svg>